<?xml version="1.0" encoding="utf-8"?>
<!-- Generator: Adobe Illustrator 23.0.2, SVG Export Plug-In . SVG Version: 6.00 Build 0)  -->
<svg version="1.1" id="Layer_1" xmlns="http://www.w3.org/2000/svg" xmlns:xlink="http://www.w3.org/1999/xlink" x="0px" y="0px"
	 viewBox="0 0 120.82 120.82" style="enable-background:new 0 0 120.82 120.82;" xml:space="preserve">
<style type="text/css">
	.st0{fill:#D7D9CE;}
</style>
<g>
	<path class="st0" d="M89,57v34c0,6.6-5.4,12-12,12H30c-6.6,0-12-5.4-12-12V44c0-6.6,5.4-12,12-12h34V18H30C15.66,18,4,29.66,4,44
		v47c0,14.34,11.66,26,26,26h47c14.34,0,26-11.66,26-26V57H89z"/>
	<g>
		<path class="st0" d="M116.9,35.91l0-21.57c0.11-0.4,0.19-0.81,0.19-1.24V8.53c0-1.35-0.57-2.56-1.48-3.42
			c-0.86-0.91-2.07-1.48-3.42-1.48h-4.57c-0.43,0-0.84,0.08-1.24,0.19l-21.57,0c-2.6,0-4.71,2.11-4.71,4.71v4.57
			c0,2.6,2.11,4.71,4.71,4.71H93L52.78,58.04c-1.84,1.84-1.84,4.83,0,6.67l3.23,3.23c1.84,1.84,4.83,1.84,6.67,0l40.22-40.22v8.2
			c0,2.6,2.11,4.71,4.71,4.71h4.57C114.79,40.63,116.9,38.52,116.9,35.91z"/>
	</g>
</g>
</svg>
