<?xml version="1.0" encoding="utf-8"?>
<!-- Generator: Adobe Illustrator 23.0.6, SVG Export Plug-In . SVG Version: 6.00 Build 0)  -->
<svg version="1.1" id="Capa_1" xmlns="http://www.w3.org/2000/svg" xmlns:xlink="http://www.w3.org/1999/xlink" x="0px" y="0px"
	 viewBox="0 0 390.6 390.6" style="enable-background:new 0 0 390.6 390.6;" xml:space="preserve">
<style type="text/css">
	.st0{fill:#145C9E;}
</style>
<g>
	<path class="st0" d="M389.8,248.3l-43-68.1V55l-17.5-17.5h-268L43.8,55v125.2l-43,68.1L389.8,248.3L389.8,248.3z M311.8,72.5v87.4
		c-22.6-5.8-61.5-13-116.5-13s-93.9,7.2-116.5,13V72.5H311.8z"/>
	<polygon class="st0" points="0,269.8 0,304.8 40.8,304.8 40.8,353 75.8,353 75.8,304.8 314.8,304.8 314.8,353 349.8,353 
		349.8,304.8 390.6,304.8 390.6,269.8 	"/>
	<path class="st0" d="M181.1,128.7v-20.4c0-12.1-17.6-21.9-39.2-21.9s-39.2,9.8-39.2,21.9v30.6c0,0,23.1-5.8,39-7.3
		C156,130.2,181.1,128.7,181.1,128.7z"/>
	<path class="st0" d="M287.9,138.9v-30.6c0-12.1-17.6-21.9-39.2-21.9s-39.2,9.8-39.2,21.9v20.4c0,0,25.1,1.5,39.4,2.9
		C264.8,133,287.9,138.9,287.9,138.9z"/>
</g>
</svg>
