<?xml version="1.0" encoding="utf-8"?>
<!-- Generator: Adobe Illustrator 23.0.6, SVG Export Plug-In . SVG Version: 6.00 Build 0)  -->
<svg version="1.1" id="Capa_1" xmlns="http://www.w3.org/2000/svg" xmlns:xlink="http://www.w3.org/1999/xlink" x="0px" y="0px"
	 viewBox="0 0 528.5 528.5" style="enable-background:new 0 0 528.5 528.5;" xml:space="preserve">
<style type="text/css">
	.st0{fill:#FFFFFF;}
</style>
<g>
	<g>
		<path class="st0" d="M49.2,419.4h-0.5l-8.3-134.2H25.2v134.2v8.4v16.8v75.5h15.3l4.4-50.3h74.5l6.2,50.3h8.7v-54.5v-21v-25.2
			h-21.2H49.2z M118.2,461.4H45.6l1.5-16.8h69.2L118.2,461.4z"/>
		<path class="st0" d="M477.7,419.4h-0.5h-63.8h-27.4v25.2v75.5h15l6.2-50.3h74.5l4.4,50.3h17.3v-75.5v-16.8v-8.4V285.2h-17.4
			L477.7,419.4z M480.8,461.4h-72.7l2.1-16.8h69.2L480.8,461.4z"/>
		<path class="st0" d="M436.2,361.7v-27.2c0-4.1-3.3-7.4-7.4-7.4H99.7c-4.1,0-7.4,3.3-7.4,7.4v27.2c0,4.1,3.3,7.4,7.4,7.4h93.3v16.8
			h33.6v124.9c0,0.3,0.1,0.6,0.1,0.9h-33.6v16.8h50.3h41.9h50.3v-16.8h-33.6c0-0.3,0.1-0.6,0.1-0.9V385.9h33.6v-16.8h93.3
			C432.9,369.1,436.2,365.8,436.2,361.7z"/>
		<path class="st0" d="M214.7,0v120.2h-5.6c-6.7,22.4-16.2,41.4-16.2,72c0,27.2,10.8,50.6,13.4,64.1h29.3
			c5.2-15.4,11.4-37.8,11.4-64.1c0-30.5-7.3-49.6-14-72h-7V0H214.7z"/>
		<path class="st0" d="M293.2,0v52.9h-5.1c-7,22.4-14.5,43.5-14.5,75.6c0,33.8,10.6,53.6,13.2,67.8h29c5.5-16.2,12.3-40.1,12.3-67.8
			c0-32.1-8-53.1-15-75.6h-8.8V0H293.2z"/>
	</g>
</g>
</svg>
