<svg id="Layer_1" data-name="Layer 1" xmlns="http://www.w3.org/2000/svg" xmlns:xlink="http://www.w3.org/1999/xlink" viewBox="0 0 1440 290"><defs><style>.cls-1{fill:url(#linear-gradient);}.cls-2{fill:url(#linear-gradient-2);}.cls-3{fill:url(#linear-gradient-3);}.cls-4{fill:url(#linear-gradient-4);}.cls-5{fill:url(#linear-gradient-5);}.cls-6{fill:url(#linear-gradient-6);}.cls-7{fill:url(#linear-gradient-7);}.cls-8{fill:url(#linear-gradient-8);}.cls-9{fill:url(#linear-gradient-9);}</style><linearGradient id="linear-gradient" x1="134.79" y1="5" x2="134.79" y2="295" gradientUnits="userSpaceOnUse"><stop offset="0" stop-color="#29abe2"/><stop offset="0.6"/></linearGradient><linearGradient id="linear-gradient-2" x1="245.09" y1="176.29" x2="245.09" y2="260.89" xlink:href="#linear-gradient"/><linearGradient id="linear-gradient-3" x1="390.17" y1="175.99" x2="390.17" y2="260.59" xlink:href="#linear-gradient"/><linearGradient id="linear-gradient-4" x1="536.9" y1="146.29" x2="536.9" y2="258.79" xlink:href="#linear-gradient"/><linearGradient id="linear-gradient-5" x1="754.47" y1="151.79" x2="754.47" y2="254.84" xlink:href="#linear-gradient"/><linearGradient id="linear-gradient-6" x1="956.13" y1="176.29" x2="956.13" y2="260.89" xlink:href="#linear-gradient"/><linearGradient id="linear-gradient-7" x1="1093.73" y1="156.79" x2="1093.73" y2="260.29" xlink:href="#linear-gradient"/><linearGradient id="linear-gradient-8" x1="1232.08" y1="175.99" x2="1232.08" y2="260.59" xlink:href="#linear-gradient"/><linearGradient id="linear-gradient-9" x1="1378.8" y1="146.29" x2="1378.8" y2="258.79" xlink:href="#linear-gradient"/></defs><title>logo</title><path class="cls-1" d="M229.54,84.28h.22L264.48,5H5.1L38.8,84.28H39a114.85,114.85,0,0,1,63.4-47.56L134.28,295,167.09,37A114.87,114.87,0,0,1,229.54,84.28Z" transform="translate(-5.1 -5)"/><path class="cls-2" d="M292.07,182.44c-8.38-3.3-22.74-6.15-45.64-6.15-22.29,0-39.35,3.15-51,10.8-10.18,6.75-15.42,17.85-15.42,31.8,0,18.15,6.89,27.6,17.21,33.3,10,5.7,28.13,8.7,52.83,8.7,27.38,0,48.18-4.2,57.16-6.45l-1.5-18a318.26,318.26,0,0,1-55.22,4.65c-21.39,0-31.87-1.2-37.26-4.05-4.34-2.25-6.73-5.4-6.88-9.9v-.45H307.79a97.79,97.79,0,0,0,2.39-19.2C310.18,195.64,303.9,187.09,292.07,182.44Zm-6.88,29.25H206.33a11.55,11.55,0,0,1,6.44-10.5c5.23-2.85,16.75-5.1,34.56-5.1,13.47,0,23.79,1.35,29.48,2.85,6.44,1.65,8.83,4.65,8.83,9A19.43,19.43,0,0,1,285.19,211.69Z" transform="translate(-5.1 -5)"/><path class="cls-3" d="M394.73,239.29c-16.31,0-26.93-1.35-33.37-4.8-5.83-3.15-8.23-8.25-8.23-15.45,0-6.15,1.65-11.4,6.74-15.15,5.83-4.35,16.16-6.6,34.11-6.6,22.9,0,42.8,3.45,55.37,5.85l4-19.5C440.07,179.74,418.08,176,394,176c-25.58,0-41,4.8-51,11.4-10.33,6.75-16.31,17-16.31,32.4,0,16.05,6,26.25,17.5,32.4,10.63,5.7,29,8.4,50.58,8.4a261.9,261.9,0,0,0,59-7.2l-4-20.25C434.54,236,414,239.29,394.73,239.29Z" transform="translate(-5.1 -5)"/><path class="cls-4" d="M544.68,176.29a156.89,156.89,0,0,0-47.14,7.5h-.6v-37.5H470.6v112.5h26.34v-54.6c3.14-1.2,21.85-6.6,44-6.6,27.38,0,35.91,6.75,35.91,20.1v41.1h26.34V216.34C603.19,192.64,590.62,176.29,544.68,176.29Z" transform="translate(-5.1 -5)"/><polygon class="cls-5" points="896.78 151.79 861.01 151.79 804.45 215.69 804.15 215.69 756.42 161.09 752.52 161.09 704.64 215.69 704.34 215.69 647.93 151.79 612.16 151.79 612.16 153.29 701.95 254.84 705.24 254.84 754.32 198.89 754.62 198.89 803.7 254.84 806.85 254.84 896.78 153.29 896.78 151.79"/><path class="cls-6" d="M948.12,176.29c-24.39,0-45.49,4.2-48.63,5.1l3,19.2a204.22,204.22,0,0,1,44.15-4.5c29.93,0,45.49,4.35,45.49,13.35v4.35h-.45c-5.69-.6-28.28-3-48.48-3-19.61,0-32,2.7-38.46,6.15-7,3.9-10.93,10.5-10.93,18.9,0,9.3,3.75,15.75,11.53,19.65,7.48,3.75,18.85,5.4,34.86,5.4,21.7,0,41.6-5.1,54.92-9.6h.45l2.54,7.5h20.35V208.24C1018.45,187.84,993.62,176.29,948.12,176.29Zm44,59.55c-10,2.85-28.43,6.15-48.93,6.15-10.78,0-16.61-.9-19.46-2.25-2.54-1.2-3.59-3.3-3.59-6.15a6.24,6.24,0,0,1,3.59-5.85c3.59-1.8,11.52-2.25,24.54-2.25,22,0,43.85,1.8,43.85,1.8Z" transform="translate(-5.1 -5)"/><path class="cls-7" d="M1112,239c-33.82,0-38.46-5.4-38.46-16.8v-23.1h81.25v-21.3h-81.25v-21h-6.59l-19.75,3.75v17.25h-15.56v21.3h15.56v24.75c0,22.8,10.63,36.45,62.85,36.45,18,0,34.87-2.55,45.79-5.55l-2.54-20.1C1146.25,236.29,1127.55,239,1112,239Z" transform="translate(-5.1 -5)"/><path class="cls-8" d="M1236.64,239.29c-16.31,0-26.93-1.35-33.37-4.8-5.83-3.15-8.23-8.25-8.23-15.45,0-6.15,1.65-11.4,6.74-15.15,5.83-4.35,16.16-6.6,34.11-6.6,22.9,0,42.8,3.45,55.37,5.85l4-19.5C1282,179.74,1260,176,1235.89,176c-25.59,0-41,4.8-51,11.4-10.33,6.75-16.31,17-16.31,32.4,0,16.05,6,26.25,17.5,32.4,10.63,5.7,29,8.4,50.58,8.4a261.9,261.9,0,0,0,59-7.2l-4-20.25C1276.45,236,1256,239.29,1236.64,239.29Z" transform="translate(-5.1 -5)"/><path class="cls-9" d="M1386.59,176.29a156.89,156.89,0,0,0-47.14,7.5h-.6v-37.5h-26.34v112.5h26.34v-54.6c3.14-1.2,21.85-6.6,44-6.6,27.39,0,35.92,6.75,35.92,20.1v41.1h26.34V216.34C1445.1,192.64,1432.53,176.29,1386.59,176.29Z" transform="translate(-5.1 -5)"/></svg>