<svg id="Layer_1" data-name="Layer 1" xmlns="http://www.w3.org/2000/svg" viewBox="0 0 585 568"><defs><style>.cls-1{fill:#3a3a38;}.cls-2{fill:#fff;}.cls-3{fill:#b5b4a0;}.cls-4{fill:none;stroke:#0071bc;stroke-miterlimit:10;stroke-width:10px;}</style></defs><title>logo</title><path class="cls-1" d="M0,157H585a0,0,0,0,1,0,0V543a25,25,0,0,1-25,25H25A25,25,0,0,1,0,543V157a0,0,0,0,1,0,0Z"/><polygon class="cls-2" points="131 157 188 157 131 237 70 237 131 157"/><polygon class="cls-1" points="0 70 0 243 201 243 29 65 0 70"/><polygon class="cls-1" points="570 0 580 78 98.87 137.31 29 65 570 0"/><polygon class="cls-2" points="500 157 557 157 500 237 439 237 500 157"/><polygon class="cls-2" points="255 157 312 157 255 237 194 237 255 157"/><polygon class="cls-2" points="376 157 433 157 376 237 315 237 376 157"/><polygon class="cls-2" points="433 16.09 490 9 557 81.91 500 89 433 16.09"/><polygon class="cls-2" points="312 30.18 369 23 436 96.82 379 104 312 30.18"/><polygon class="cls-2" points="193 45.09 250 38 317 110.91 260 118 193 45.09"/><polygon class="cls-2" points="74 59.18 131 52 198 125.82 141 133 74 59.18"/><circle class="cls-3" cx="34" cy="114" r="12"/><circle class="cls-3" cx="33" cy="205" r="12"/><circle class="cls-3" cx="124" cy="205" r="12"/><polygon class="cls-2" points="254 351 358 403 254 455 254 351"/><circle class="cls-4" cx="292" cy="403" r="131"/><circle class="cls-4" cx="292" cy="403" r="93"/></svg>