<svg id="Layer_1" data-name="Layer 1" xmlns="http://www.w3.org/2000/svg" viewBox="0 0 270.21 151.17"><defs><style>.cls-1{fill:#0071bc;}.cls-2{fill:#fff;}</style></defs><title>logo</title><polygon class="cls-1" points="270.21 75.19 199.5 4.48 199.5 37.69 0 37.69 0 112.69 199.5 112.69 199.5 145.91 270.21 75.19"/><path d="M14.52,40.3,15,33.45l.51-10.19.33-10H14.24l-1.52,0-1.45,0-5.41.17q.18-3.37.21-5.13,6.75,0,14.13,0l8.41,0,4.5,0q-.24,3.33-.24,5.13c-2.82-.14-5.54-.21-8.13-.21h-1.8l-.28,4.28L22,34l0,2.76c0,1.14,0,2.33,0,3.56l-3.56,0Z" transform="translate(-2 -8.31)"/><path d="M35.4,40.3,36,31.88q.45-6.89.64-12.78t.19-8.22l0-2.57c1.84,0,3.14,0,3.9,0l3.53,0-.62,10.57-.07,2.43h16L59.75,15q.09-3.26.09-4.29V8.31l3.92,0,3.52,0-.77,12.77-.33,9.47-.09,5.55c0,2.28,0,3.68,0,4.2l-3.65,0-3.9,0q.61-6.63.78-13.95h-16L42.94,35l-.1,5.32-3.85,0Z" transform="translate(-2 -8.31)"/><path d="M72.6,40.3l.68-9,.49-10.38.3-9.45V8.31q5.79,0,12.08,0l4.5,0,6.77,0-.28,5.06-2.23-.12c-.61,0-1.45-.05-2.53-.07l-3.3,0H84.35c-.71,0-1.78,0-3.22.08l-.38,8.32q3.21.08,6.47.07,2.25,0,7.6-.14c-.13,1.42-.24,3.13-.33,5.11l-7.17-.07q-2.76,0-6.89.14l-.38,8.77,2.58,0,5.16,0,5.08-.09,3.4-.16q-.22,2.71-.33,5.13-6.09,0-11,0l-7.71,0Z" transform="translate(-2 -8.31)"/><path class="cls-2" d="M16.83,100.7q-5.74-16.12-11.94-32c1.5,0,2.71.05,3.65.05s2.25,0,3.65-.05L18.76,88.1l2.74,7.64c.6-1.16,1.49-3,2.69-5.57s2-4.43,2.56-5.65C26,82.33,25.13,79.69,24,76.58S22,70.85,21.13,68.71c1.33,0,2.49.05,3.49.05s2.27,0,3.49-.05c.74,2.83,1.56,5.62,2.45,8.39,1.31-2.83,2.51-5.62,3.6-8.39,1.36,0,2.45.05,3.28.05s2.05,0,3.28-.05q-1.5,3-3.72,7.66c-1.47,3.11-2.67,5.7-3.57,7.78.34,1.13,1,3,1.93,5.72s1.63,4.59,2.07,5.7l6.29-13.4,4.56-10,1.5-3.42c1.5,0,2.71.05,3.62.05s2.21,0,3.64-.05l-4.41,8.74-9.2,18.89-2.06,4.36c-1.68,0-3.11,0-4.29,0s-2.69,0-4.32,0q-1.38-4.73-3-9.28Q27.49,96,25.5,100.7c-1.67,0-3.12,0-4.34,0S18.44,100.67,16.83,100.7Z" transform="translate(-2 -8.31)"/><path class="cls-2" d="M58,100.7c.47-4.65.83-10,1.06-16s.36-11.36.36-15.94c1.87,0,3.44.05,4.71.05s2.69,0,4-.07,2.68-.07,4.14-.07a35.36,35.36,0,0,1,4.86.3,9,9,0,0,1,3.81,1.41A7.13,7.13,0,0,1,83.37,73a7.87,7.87,0,0,1,.81,3.66,9.65,9.65,0,0,1-.31,2.49,8.84,8.84,0,0,1-.9,2.23,8.3,8.3,0,0,1-1.42,1.83,8.69,8.69,0,0,1-1.63,1.24,10.08,10.08,0,0,1-1.84.78c-.68.22-1.61.49-2.76.8l1.59,3.09c.52,1,1.49,2.75,2.93,5.3l2.37,4.15c.12.22.5.93,1.12,2.13l-3.78,0c-.75,0-2.08,0-4,0L73,94.47c-.45-1-1-2.08-1.64-3.38L68.51,85.4c-.28-.53-.67-1.33-1.17-2.39a17.12,17.12,0,0,0,2.86.28,9.88,9.88,0,0,0,3.68-.66,5.17,5.17,0,0,0,2.56-2,5.31,5.31,0,0,0,.89-3A4.44,4.44,0,0,0,77,75.79a3.47,3.47,0,0,0-1.3-1.43,5.27,5.27,0,0,0-2.18-.75,19.7,19.7,0,0,0-2.54-.17l-1.92,0-3,0-.42,9.63-.44,17.58-3.63,0Z" transform="translate(-2 -8.31)"/><path class="cls-2" d="M88.35,100.7q.56-8.06.91-16.53t.35-13l0-2.51,3.91.05,3.59-.05q-1,12.33-1.21,32l-3.45,0Z" transform="translate(-2 -8.31)"/><path class="cls-2" d="M120.86,82.42c2.15,0,4.22,0,6.18,0q3.87,0,6.45,0-.62,7.86-.88,17.44c-2.59.51-4.93.88-7,1.09s-3.87.31-5.34.31a31.89,31.89,0,0,1-7.65-.86,15.2,15.2,0,0,1-6-2.82,12.22,12.22,0,0,1-3.72-5.12,18.39,18.39,0,0,1-.32-12.55,16.9,16.9,0,0,1,2.81-5.15,16.12,16.12,0,0,1,4.5-3.91,17.58,17.58,0,0,1,5.6-2.13,33.23,33.23,0,0,1,6.27-.57,51.84,51.84,0,0,1,10.45,1.22c0,1.77.11,3.63.26,5.57a32,32,0,0,0-10-1.85,18.06,18.06,0,0,0-5.45.82,11.76,11.76,0,0,0-4.43,2.55,11.1,11.1,0,0,0-2.83,4.26,14.59,14.59,0,0,0-1,5.26,12.67,12.67,0,0,0,1.11,5.41,7.84,7.84,0,0,0,3.74,3.69,13.36,13.36,0,0,0,6,1.31,22.4,22.4,0,0,0,2.93-.22,24.51,24.51,0,0,0,3.52-.76l.38-8.23-1.85,0c-1,0-2.38,0-4,.07C120.79,85.13,120.86,83.53,120.86,82.42Z" transform="translate(-2 -8.31)"/><path class="cls-2" d="M139,100.7l.55-8.41q.45-6.9.64-12.79t.19-8.21l0-2.58,3.9.05,3.53-.05-.62,10.57-.07,2.44h16l.29-6.34c.06-2.18.09-3.61.09-4.3V68.71l3.92.05,3.52-.05-.78,12.77L169.82,91l-.09,5.56c0,2.28,0,3.68,0,4.19l-3.66,0-3.89,0q.62-6.63.78-13.94h-16l-.34,8.62-.09,5.32-3.85,0Z" transform="translate(-2 -8.31)"/><path class="cls-2" d="M183.08,100.7l.52-6.84.51-10.2.33-10H182.8l-1.52,0-1.45,0-5.41.16q.2-3.37.21-5.13,6.75,0,14.13.05l8.41,0,4.5,0q-.24,3.33-.24,5.13-4.23-.21-8.13-.21h-1.8l-.28,4.28-.68,16.47,0,2.77c0,1.14,0,2.32,0,3.55l-3.57,0Z" transform="translate(-2 -8.31)"/><path d="M7.51,158.92c.3-2.8.52-5.94.68-9.43L8.72,138c.19-4.16.28-7.85.28-11.09,1.82,0,3.35,0,4.62,0,.93,0,2.3,0,4.1,0q2.64,4.62,7.31,12t7.53,12.3l.86-21.75c0-.51,0-1.38,0-2.6,1.47,0,2.58,0,3.33,0l3.28,0-.58,8.6-.72,14.72-.28,8.68c-1.63,0-3,0-4.15,0-.91,0-2.38,0-4.41,0-.78-1.4-1.37-2.43-1.78-3.1q-1-1.55-4.1-6.37-2.07-3.19-5.16-8.16c-1.52-2.44-2.81-4.56-3.89-6.37q-.2,3.79-.58,14.08c-.11,2.8-.2,6.1-.26,9.92-1.47,0-2.53,0-3.19,0S9.29,158.88,7.51,158.92Z" transform="translate(-2 -8.31)"/><path d="M45.24,158.92l.68-9,.5-10.38.3-9.45v-3.19q5.79,0,12.07,0l4.5,0,6.77,0L69.78,132l-2.22-.12c-.61,0-1.46-.06-2.53-.07s-2.18,0-3.31,0c-2.44,0-4,0-4.72,0s-1.79,0-3.22.08l-.39,8.32c2.15.05,4.3.07,6.48.07q2.25,0,7.59-.14c-.12,1.42-.23,3.12-.32,5.11L60,145.16c-1.84,0-4.14,0-6.88.14l-.39,8.76,2.58,0,5.16-.05,5.09-.09,3.4-.17c-.16,1.81-.27,3.53-.33,5.14-4.06,0-7.73,0-11,0l-7.71,0Z" transform="translate(-2 -8.31)"/><path d="M83.92,158.92q-5.74-16.12-11.93-32c1.5,0,2.71,0,3.65,0s2.25,0,3.65,0l6.57,19.39L88.6,154c.6-1.16,1.49-3,2.69-5.56s2-4.44,2.56-5.66q-1.08-3.27-2.73-7.94c-1.1-3.1-2.06-5.73-2.89-7.87,1.33,0,2.49,0,3.49,0s2.27,0,3.49,0q1.11,4.24,2.45,8.39,2-4.25,3.6-8.39c1.36,0,2.45,0,3.28,0s2,0,3.28,0c-1,2-2.24,4.56-3.72,7.66s-2.67,5.71-3.57,7.78c.34,1.13,1,3,1.93,5.73s1.63,4.59,2.07,5.7l6.29-13.41,4.56-10,1.5-3.43c1.5,0,2.71,0,3.62,0s2.21,0,3.63,0l-4.4,8.75-9.2,18.89-2.06,4.36c-1.68,0-3.11,0-4.29,0s-2.69,0-4.32,0q-1.38-4.74-3-9.29-2.22,4.56-4.21,9.29c-1.67,0-3.12,0-4.34,0S85.53,158.88,83.92,158.92Z" transform="translate(-2 -8.31)"/><path d="M124.3,158.24q-.19-3.57-.49-5.82a20.44,20.44,0,0,0,8.34,2.09,8.27,8.27,0,0,0,2.8-.46,3.84,3.84,0,0,0,1.92-1.29,3,3,0,0,0,.62-1.86,3.45,3.45,0,0,0-.29-1.43,6.5,6.5,0,0,0-1.5-1.8c-.89-.86-2.49-2.28-4.78-4.25-1.09-.95-1.85-1.63-2.26-2a16.69,16.69,0,0,1-2.16-2.4,7.08,7.08,0,0,1-1.4-4.37,7.58,7.58,0,0,1,1.23-4.14,8.09,8.09,0,0,1,3.68-3,15.15,15.15,0,0,1,6.17-1.09,39.48,39.48,0,0,1,7.55.82c.08,1.63.23,3.49.47,5.58a18.85,18.85,0,0,0-6.74-1.41,6.25,6.25,0,0,0-3.75,1.05,3,3,0,0,0-1.47,2.42,3.26,3.26,0,0,0,.11.79,3.29,3.29,0,0,0,.3.79,6.17,6.17,0,0,0,.73,1,11.65,11.65,0,0,0,1.53,1.45c.67.56,1.24,1,1.72,1.35l2.89,2.63c.73.61,1.39,1.2,2,1.78a17.78,17.78,0,0,1,1.49,1.66,8.38,8.38,0,0,1,1,1.53,7.49,7.49,0,0,1,.53,1.48,7.64,7.64,0,0,1,.17,1.61,7.86,7.86,0,0,1-.91,3.71,7.64,7.64,0,0,1-2.63,2.88,10.87,10.87,0,0,1-3.75,1.55,20.58,20.58,0,0,1-4.31.44,28,28,0,0,1-3.49-.26Q127.56,159,124.3,158.24Z" transform="translate(-2 -8.31)"/></svg>