<?xml version="1.0" encoding="utf-8"?>
<!-- Generator: Adobe Illustrator 23.0.6, SVG Export Plug-In . SVG Version: 6.00 Build 0)  -->
<svg version="1.1" id="Capa_1" xmlns="http://www.w3.org/2000/svg" xmlns:xlink="http://www.w3.org/1999/xlink" x="0px" y="0px"
	 viewBox="0 0 555.9 555.9" style="enable-background:new 0 0 555.9 555.9;" xml:space="preserve">
<style type="text/css">
	.st0{fill:#FFFFFF;}
</style>
<g>
	<g id="directionswalk">
		<path class="st0" d="M316.2,91.8c25.5,0,45.9-20.4,45.9-45.9S341.7,0,316.2,0s-45.9,20.4-45.9,45.9S290.7,91.8,316.2,91.8z
			 M318.8,249.9h125V204h-91.8l-51-84.2c-7.6-12.8-23-23-38.3-23c-5.1,0-7.6,0-12.8,2.6l-137.7,43.4v132.6h45.9v-94.4l53.6-17.9
			l-99.5,392.7h45.9l73.9-206.6l58.7,79.1v127.5h45.9V392.7l-63.8-114.8l17.9-73.9L318.8,249.9z"/>
	</g>
</g>
</svg>
